<?xml version="1.0" standalone="no"?>
<!DOCTYPE svg PUBLIC "-//W3C//DTD SVG 20010904//EN"
 "http://www.w3.org/TR/2001/REC-SVG-20010904/DTD/svg10.dtd">
<svg verion="1.0" xmlns="http://www.w3.org/2000/svg"
 width="144.000000pt" height="53.000000pt" viewBox="0 0 512.000000 512.000000"
 preserveAspectRatio="xMidYMid meet">

<g transform="translate(0.000000,512.000000) scale(0.100000,-0.100000)"
fill="#000000" stroke="none">
<path d="M2410 5114 c-504 -44 -899 -178 -1274 -431 -1005 -679 -1400 -1958
-949 -3073 296 -733 893 -1276 1654 -1505 108 -32 290 -70 417 -86 125 -17
479 -17 604 0 298 38 558 116 823 246 570 280 1014 758 1248 1345 127 320 181
602 181 950 0 266 -27 463 -95 699 -170 592 -544 1100 -1063 1443 -316 208
-709 351 -1096 398 -94 11 -379 20 -450 14z m80 -149 c38 -20 90 -88 77 -102
-12 -11 -87 -15 -87 -4 0 26 -40 51 -84 51 -53 0 -90 -26 -107 -77 -14 -44 -6
-126 16 -160 22 -32 76 -54 114 -47 36 8 81 49 81 75 0 16 -8 19 -44 19 -40 0
-44 2 -49 28 -3 15 -3 29 0 32 7 8 157 18 165 11 4 -3 10 -54 14 -113 l7 -108
-32 0 c-24 0 -31 4 -31 20 0 24 -13 26 -31 4 -49 -59 -175 -59 -237 -1 -47 43
-67 96 -67 177 0 88 27 147 84 182 61 38 151 44 211 13z m489 -15 c95 -44 134
-151 97 -273 -29 -95 -93 -147 -183 -147 -130 2 -203 74 -203 201 0 34 5 79
12 101 13 45 61 101 103 123 42 21 121 18 174 -5z m311 -76 c22 -9 40 -17 40
-18 0 0 -7 -70 -15 -155 -8 -85 -14 -156 -12 -157 1 -2 45 53 97 122 52 68 98
124 102 124 5 0 25 -7 45 -15 33 -14 35 -17 21 -33 -101 -120 -244 -290 -254
-301 -11 -12 -19 -12 -55 -1 l-41 14 6 70 c3 39 9 137 12 219 4 81 8 147 10
147 2 0 22 -7 44 -16z m-1441 -26 c6 -17 8 -35 4 -38 -7 -6 -68 -31 -171 -71
-22 -8 -22 -10 -7 -46 9 -20 17 -38 19 -40 2 -2 43 13 91 33 84 36 88 36 101
19 25 -34 17 -51 -33 -70 -27 -10 -67 -27 -90 -37 l-41 -18 16 -41 c9 -23 21
-43 27 -45 6 -3 55 14 109 36 55 22 100 39 101 38 16 -31 24 -63 18 -69 -8 -7
-246 -105 -271 -111 -13 -3 -165 346 -160 370 2 11 244 120 270 122 3 0 11
-14 17 -32z m-390 -167 l21 -29 -50 -31 c-27 -17 -50 -34 -50 -39 0 -4 38 -68
85 -142 47 -74 85 -138 85 -142 0 -3 -16 -15 -35 -27 l-35 -20 -53 82 c-29 45
-69 108 -88 139 -18 32 -38 58 -44 58 -5 0 -28 -11 -50 -25 -22 -13 -45 -25
-51 -25 -17 0 -37 51 -25 63 14 14 254 165 263 166 4 1 16 -12 27 -28z m2371
-57 c66 -42 123 -80 125 -85 6 -9 -23 -59 -35 -59 -4 0 -43 23 -86 51 -43 28
-83 53 -89 55 -10 4 -52 -63 -44 -70 2 -1 39 -26 82 -55 80 -54 80 -53 49 -99
-7 -10 -27 -2 -89 37 -44 28 -84 51 -90 51 -9 0 -58 -79 -52 -84 2 -2 45 -30
96 -62 l92 -59 -20 -32 -21 -33 -56 37 c-32 20 -92 58 -134 85 l-77 49 112
174 c62 96 113 175 115 175 1 0 56 -34 122 -76z m-1104 -164 c584 -52 1096
-358 1432 -857 107 -159 200 -373 253 -582 166 -652 -31 -1347 -515 -1824
-747 -734 -1959 -724 -2695 23 -584 592 -718 1491 -332 2226 227 433 624 770
1086 923 256 85 506 114 771 91z m1451 -97 c46 -42 91 -89 99 -104 38 -75 -15
-169 -96 -169 -27 0 -30 -3 -30 -30 0 -21 -13 -44 -44 -79 -24 -27 -46 -55
-49 -63 -3 -9 -13 -5 -36 16 -17 17 -31 33 -31 37 0 3 18 29 40 57 22 27 40
58 40 68 0 10 -21 37 -47 61 l-46 43 -49 -55 c-27 -30 -55 -55 -62 -55 -7 0
-23 11 -35 24 -23 24 -23 25 -5 49 24 30 258 277 263 277 1 0 41 -35 88 -77z
m-2973 -53 c102 -58 185 -107 185 -110 0 -3 -16 -18 -34 -33 l-34 -28 -39 22
-39 23 -57 -48 c-31 -27 -56 -50 -56 -51 0 -1 7 -20 16 -40 15 -38 15 -38 -15
-69 -19 -19 -34 -27 -39 -21 -11 12 -152 379 -152 395 0 12 62 70 72 67 4 -1
90 -49 192 -107z m-390 -121 l27 -21 -36 -43 c-19 -24 -35 -47 -35 -52 0 -4
58 -53 130 -108 71 -55 129 -102 129 -105 0 -3 -12 -19 -27 -37 l-27 -32 -133
105 -134 105 -18 -23 c-61 -78 -55 -74 -84 -55 -14 10 -26 22 -26 28 0 12 192
258 201 259 4 0 18 -9 33 -21z m3676 -174 c0 -7 -29 -74 -65 -149 -36 -75 -65
-139 -65 -141 0 -2 51 31 113 75 l112 79 23 -25 c12 -14 22 -30 22 -37 -1 -7
-76 -63 -167 -126 l-167 -114 -23 29 c-12 16 -23 34 -23 41 0 7 29 74 65 149
36 76 63 139 61 141 -2 3 -50 -28 -107 -67 -56 -40 -108 -74 -114 -76 -15 -6
-48 43 -42 60 3 7 78 63 168 124 l162 112 24 -32 c12 -18 23 -37 23 -43z
m-3880 -205 c13 -8 13 -14 -4 -44 -15 -28 -23 -35 -41 -30 -48 12 -116 -84
-85 -121 24 -29 54 -16 120 50 75 76 113 93 162 72 57 -24 73 -51 73 -122 0
-54 -4 -69 -30 -106 -40 -57 -89 -89 -134 -89 -58 0 -69 12 -48 55 14 30 20
35 42 29 36 -9 70 17 90 71 17 43 17 46 0 65 -10 11 -24 20 -31 20 -7 0 -44
-31 -82 -69 -38 -38 -79 -72 -91 -76 -71 -22 -151 42 -151 121 0 68 42 138
105 172 25 14 85 15 105 2z m4146 -215 c10 -30 16 -56 13 -58 -2 -3 -62 -43
-134 -91 -71 -47 -123 -86 -115 -86 8 0 74 9 145 20 72 11 138 20 148 20 17 0
57 -73 57 -104 0 -12 -376 -164 -383 -155 -8 10 -29 70 -26 73 2 2 68 27 146
57 78 29 140 55 139 56 -2 2 -65 -6 -140 -17 -180 -26 -174 -27 -192 16 -8 20
-14 37 -12 39 2 1 59 39 128 85 152 101 160 107 90 80 -165 -65 -243 -91 -249
-84 -4 5 -13 22 -19 37 -10 24 -9 29 6 34 9 4 96 37 192 74 96 37 178 65 182
63 4 -3 15 -29 24 -59z m-4250 -393 c88 -45 124 -121 104 -215 -20 -99 -92
-157 -193 -157 -149 0 -259 100 -242 219 10 71 39 123 87 154 40 27 49 28 123
25 56 -3 93 -11 121 -26z m4419 -104 c12 -53 46 -271 42 -274 -1 -2 -18 -5
-37 -6 l-34 -3 -17 100 c-10 55 -18 101 -18 103 -1 1 -17 2 -36 2 -22 0 -38
-6 -41 -15 -3 -8 1 -53 9 -101 15 -91 15 -91 -33 -96 -24 -3 -26 0 -41 92
l-15 95 -45 -3 c-24 -2 -47 -7 -51 -11 -4 -3 -1 -51 8 -104 9 -54 13 -105 10
-113 -3 -8 -19 -14 -35 -14 -24 0 -32 5 -35 23 -12 53 -47 280 -44 282 4 4
359 62 385 64 16 1 24 -6 28 -21z m-4458 -389 c69 -33 86 -72 91 -206 l5 -113
-69 0 c-38 0 -133 -3 -211 -7 l-143 -6 0 117 c0 166 20 202 128 233 59 16 143
8 199 -18z m4511 -80 l3 -47 -143 -78 -143 -79 143 -3 142 -3 0 -39 0 -40
-210 0 -210 0 0 44 0 44 139 78 c77 43 137 81 135 84 -8 7 -11 7 -149 9 l-125
1 0 24 c0 58 -5 57 214 54 l201 -3 3 -46z m-4400 -396 c35 -151 46 -212 40
-219 -8 -7 -392 -93 -396 -89 -2 2 -19 68 -37 147 -35 154 -35 155 21 157 19
1 24 -10 43 -91 12 -51 21 -99 21 -106 0 -8 7 -11 18 -8 9 3 30 8 45 12 16 4
26 12 24 18 -8 22 -39 178 -35 181 2 1 17 6 34 9 l31 7 23 -96 22 -96 41 6
c23 4 46 11 51 15 4 5 -1 49 -13 100 -30 132 -30 131 35 139 6 0 20 -38 32
-86z m4376 -34 c7 -6 -32 -202 -60 -301 -6 -19 -40 -24 -63 -9 -12 8 -13 18
-3 62 7 28 10 55 7 58 -4 3 -77 22 -163 42 l-157 36 3 34 c2 19 7 38 12 43 5
5 77 -7 166 -27 87 -20 161 -34 164 -32 4 2 12 29 19 60 12 53 14 55 39 49 15
-4 31 -10 36 -15z m-4215 -504 c32 -16 71 -87 71 -127 0 -32 -42 -69 -105 -94
-45 -17 -47 -17 -73 2 -15 11 -38 42 -51 68 -28 55 -23 87 20 118 19 15 87 45
107 48 2 0 16 -7 31 -15z m3765 -32 c23 -16 42 -37 44 -47 7 -36 -10 -87 -40
-122 -29 -33 -36 -36 -72 -31 -21 3 -58 18 -80 34 -33 24 -42 36 -44 65 -3 40
13 79 49 117 18 19 29 22 62 18 22 -3 59 -18 81 -34z m-2851 -898 c39 -16 38
-12 57 -219 5 -60 11 -111 14 -113 2 -2 9 11 17 29 7 18 32 75 55 125 l43 92
30 -10 c17 -6 33 -15 36 -19 6 -9 -156 -370 -166 -370 -4 0 -22 6 -41 14 l-34
15 -13 143 c-7 79 -15 151 -18 161 -3 13 -24 -22 -61 -105 -31 -67 -57 -124
-57 -126 -4 -6 -76 30 -73 37 18 49 165 361 169 361 4 0 22 -7 42 -15z m1930
-253 c49 -56 86 -106 83 -111 -4 -5 -22 -15 -41 -21 -32 -11 -36 -9 -63 21
l-29 32 -64 -25 -64 -26 -3 -46 c-3 -42 -6 -47 -39 -61 -19 -8 -37 -15 -38
-15 -4 0 -13 131 -20 298 l-6 132 43 19 43 20 55 -58 c30 -31 95 -103 143
-159z m-1597 122 c17 -4 23 -11 20 -23 -3 -9 -28 -94 -56 -190 -27 -96 -52
-176 -54 -179 -11 -11 -76 10 -76 24 0 16 99 363 107 377 3 5 12 6 20 3 8 -4
26 -9 39 -12z m1226 -186 c30 -106 52 -197 48 -201 -4 -4 -22 -10 -41 -13
l-35 -6 -52 184 c-29 100 -52 188 -52 195 0 10 37 27 71 32 3 1 30 -86 61
-191z m-941 128 c47 -20 89 -67 99 -109 4 -20 6 -38 4 -40 -2 -1 -20 -1 -39 1
-26 3 -39 11 -45 27 -12 33 -58 65 -92 65 -68 0 -115 -56 -126 -147 -7 -61 12
-98 62 -122 52 -25 88 -18 123 23 l26 31 -47 9 c-42 7 -46 11 -46 36 0 16 4
31 9 34 5 3 35 1 67 -4 112 -20 103 -10 89 -87 -7 -38 -16 -85 -19 -105 -6
-34 -10 -38 -36 -38 -25 0 -30 4 -30 25 0 23 -2 25 -21 14 -45 -24 -79 -28
-130 -15 -128 34 -174 170 -104 313 35 70 87 103 166 103 31 0 72 -6 90 -14z
m733 0 c46 -19 66 -52 66 -107 0 -34 -5 -51 -20 -64 l-21 -19 25 -13 c23 -12
46 -63 46 -103 0 -9 7 -26 16 -38 9 -13 14 -25 13 -27 -2 -2 -25 -6 -51 -10
l-47 -7 -9 38 c-6 22 -13 52 -16 67 -8 36 -37 46 -100 34 -28 -6 -53 -11 -55
-13 -1 -1 3 -35 10 -74 14 -80 9 -90 -43 -90 -30 0 -26 -15 -64 205 -25 147
-34 182 -34 135 l0 -23 -110 8 -110 7 0 -46 0 -46 100 0 100 0 0 -35 0 -35
-100 0 -100 0 0 -49 0 -49 108 -7 c59 -4 110 -9 113 -11 3 -2 4 -17 1 -34 l-4
-30 -149 0 c-81 0 -150 4 -154 9 -3 6 -2 98 1 205 l7 196 161 1 c114 0 189 5
256 18 120 24 124 24 164 7z"/>
<path d="M2820 4862 c-36 -36 -57 -126 -40 -176 33 -102 156 -110 200 -14 35
77 20 181 -29 208 -11 5 -38 10 -61 10 -32 0 -48 -6 -70 -28z"/>
<path d="M2395 4160 c-19 -8 -19 -9 3 -9 12 -1 22 4 22 9 0 6 -1 10 -2 9 -2 0
-12 -4 -23 -9z"/>
<path d="M2490 4160 c0 -5 9 -10 20 -10 11 0 20 5 20 10 0 6 -9 10 -20 10 -11
0 -20 -4 -20 -10z"/>
<path d="M2560 4160 c0 -5 9 -10 20 -10 11 0 20 5 20 10 0 6 -9 10 -20 10 -11
0 -20 -4 -20 -10z"/>
<path d="M2670 4160 c0 -5 9 -10 20 -10 11 0 20 5 20 10 0 6 -9 10 -20 10 -11
0 -20 -4 -20 -10z"/>
<path d="M2780 4151 c0 -5 9 -11 20 -14 24 -6 27 8 4 17 -21 8 -24 8 -24 -3z"/>
<path d="M2270 4140 c0 -5 9 -10 20 -10 11 0 20 5 20 10 0 6 -9 10 -20 10 -11
0 -20 -4 -20 -10z"/>
<path d="M2890 4131 c0 -11 31 -24 39 -16 3 3 -1 10 -9 15 -19 12 -30 12 -30
1z"/>
<path d="M2165 4120 c-3 -5 3 -10 14 -10 12 0 21 5 21 10 0 6 -6 10 -14 10 -8
0 -18 -4 -21 -10z"/>
<path d="M3000 4100 c0 -5 7 -10 16 -10 8 0 12 5 9 10 -3 6 -10 10 -16 10 -5
0 -9 -4 -9 -10z"/>
<path d="M2065 4090 c-3 -5 1 -10 9 -10 8 0 18 5 21 10 3 6 -1 10 -9 10 -8 0
-18 -4 -21 -10z"/>
<path d="M3103 4067 c5 -15 37 -22 37 -9 0 5 -9 12 -21 15 -13 3 -19 1 -16 -6z"/>
<path d="M1970 4060 c-8 -5 -11 -12 -7 -16 4 -4 13 -2 19 4 15 15 7 24 -12 12z"/>
<path d="M3205 4020 c3 -5 13 -10 21 -10 8 0 12 5 9 10 -3 6 -13 10 -21 10 -8
0 -12 -4 -9 -10z"/>
<path d="M1862 4013 c-6 -2 -10 -9 -7 -13 7 -11 35 -2 35 11 0 10 -8 10 -28 2z"/>
<path d="M3300 3980 c0 -12 28 -25 36 -17 3 3 -4 10 -15 17 -15 7 -21 7 -21 0z"/>
<path d="M1767 3963 c-12 -12 -7 -22 8 -17 8 4 15 10 15 15 0 11 -14 12 -23 2z"/>
<path d="M3402 3919 c2 -7 10 -15 17 -17 8 -3 12 1 9 9 -2 7 -10 15 -17 17 -8
3 -12 -1 -9 -9z"/>
<path d="M1675 3906 c-11 -8 -14 -15 -8 -19 6 -4 16 0 23 8 17 21 8 28 -15 11z"/>
<path d="M3492 3858 c5 -15 28 -23 28 -10 0 5 -7 13 -16 16 -10 4 -14 1 -12
-6z"/>
<path d="M1587 3843 c-12 -12 -7 -22 8 -17 8 4 15 10 15 15 0 11 -14 12 -23 2z"/>
<path d="M3583 3783 c9 -9 20 -13 24 -9 4 4 1 11 -7 16 -25 16 -35 11 -17 -7z"/>
<path d="M1495 3769 c-12 -19 5 -23 22 -6 16 16 16 17 1 17 -9 0 -20 -5 -23
-11z"/>
<path d="M3660 3722 c0 -12 19 -26 26 -19 2 2 -2 10 -11 17 -9 8 -15 8 -15 2z"/>
<path d="M1420 3695 c-8 -9 -8 -15 -2 -15 12 0 26 19 19 26 -2 2 -10 -2 -17
-11z"/>
<path d="M2497 3692 c-52 -32 -44 -71 14 -72 27 0 49 -16 49 -36 0 -7 -16 -32
-36 -56 -40 -47 -83 -64 -111 -43 -17 12 -17 16 0 62 21 59 21 77 1 97 -18 19
-76 21 -106 5 -40 -21 -129 -99 -113 -99 22 0 19 -9 -21 -69 -24 -35 -31 -52
-20 -48 21 8 20 -3 -4 -92 -12 -40 -18 -81 -15 -91 3 -10 -6 -63 -20 -118 -14
-56 -25 -108 -25 -116 0 -26 19 -18 40 17 18 29 20 30 20 9 l0 -22 38 23 c20
12 48 28 62 34 14 6 38 23 53 39 65 67 107 117 112 135 8 24 25 25 25 2 0 -13
5 -11 18 10 22 36 30 34 38 -8 5 -30 -1 -86 -23 -189 -5 -24 -3 -28 11 -23 19
8 20 4 4 -40 -11 -29 -16 -33 -43 -31 -38 2 -55 -8 -55 -33 0 -13 -11 -25 -32
-34 -18 -8 -27 -14 -20 -15 6 0 12 -10 12 -23 0 -12 7 -32 15 -43 8 -12 11
-25 7 -29 -4 -4 2 -3 13 3 11 5 40 15 64 22 42 11 43 12 22 26 -13 9 -21 26
-21 44 0 26 3 28 37 27 33 -2 38 -5 46 -36 6 -25 5 -36 -5 -42 -8 -6 -1 -9 22
-9 19 0 59 -7 88 -14 28 -8 50 -10 46 -5 -3 5 -14 9 -26 9 -15 0 -18 4 -13 18
3 9 9 29 12 45 6 29 30 36 51 15 12 -12 14 -9 16 27 1 18 9 20 66 23 36 2 68
6 72 10 5 5 -15 35 -43 67 -68 79 -112 174 -103 221 l6 35 20 -33 c33 -56 140
-164 172 -174 12 -4 38 -18 59 -31 22 -14 37 -18 37 -11 0 6 11 1 25 -12 14
-13 28 -21 31 -17 4 3 -7 60 -23 126 -17 66 -26 122 -21 123 5 2 -2 45 -16 97
-20 74 -22 92 -11 87 21 -8 19 0 -16 51 -25 36 -29 47 -18 54 11 7 5 17 -26
44 -22 20 -53 45 -70 55 -34 22 -104 27 -123 8 -17 -17 -15 -61 4 -102 23 -46
14 -63 -36 -68 l-40 -4 6 58 c4 38 2 68 -6 88 -11 27 -11 32 6 45 18 14 18 14
-7 15 -15 0 -46 7 -69 15 -52 18 -67 18 -103 -3z m106 -682 l6 -45 -45 0 c-27
0 -44 5 -44 12 0 22 12 43 22 37 5 -3 16 13 25 36 19 47 25 40 36 -40z m77
-31 c0 -10 -7 -19 -15 -19 -15 0 -21 31 -9 43 11 10 24 -3 24 -24z"/>
<path d="M3730 3641 c0 -13 26 -32 33 -24 8 7 -11 33 -24 33 -5 0 -9 -4 -9 -9z"/>
<path d="M1347 3623 c-4 -3 -7 -13 -7 -21 0 -12 3 -12 15 -2 8 7 15 16 15 21
0 11 -14 12 -23 2z"/>
<path d="M3806 3562 c-3 -5 1 -15 9 -22 16 -14 20 -3 6 19 -5 8 -11 9 -15 3z"/>
<path d="M1275 3529 c-4 -6 -5 -13 -2 -16 7 -7 27 6 27 18 0 12 -17 12 -25 -2z"/>
<path d="M3870 3475 c0 -18 19 -40 26 -32 4 4 0 15 -9 24 -9 10 -17 13 -17 8z"/>
<path d="M1216 3444 c-9 -23 -2 -28 13 -10 7 8 8 17 3 20 -6 3 -13 -1 -16 -10z"/>
<path d="M3930 3378 c0 -9 5 -20 11 -23 17 -11 20 0 4 21 -13 17 -14 17 -15 2z"/>
<path d="M1156 3344 c-9 -24 -7 -28 9 -14 17 14 20 30 6 30 -5 0 -12 -7 -15
-16z"/>
<path d="M3980 3276 c0 -15 18 -31 26 -23 7 7 -7 37 -17 37 -5 0 -9 -6 -9 -14z"/>
<path d="M1107 3253 c-10 -9 -9 -23 2 -23 5 0 11 7 15 15 5 15 -5 20 -17 8z"/>
<path d="M1775 3230 c-3 -5 -1 -10 4 -10 6 0 11 5 11 10 0 6 -2 10 -4 10 -3 0
-8 -4 -11 -10z"/>
<path d="M3330 3230 c0 -5 5 -10 11 -10 5 0 7 5 4 10 -3 6 -8 10 -11 10 -2 0
-4 -4 -4 -10z"/>
<path d="M1681 3206 c-7 -8 -8 -17 -3 -20 6 -3 12 3 15 14 6 24 4 25 -12 6z"/>
<path d="M1740 3210 c0 -5 5 -10 10 -10 6 0 10 5 10 10 0 6 -4 10 -10 10 -5 0
-10 -4 -10 -10z"/>
<path d="M1537 3193 c-4 -3 -7 -11 -7 -17 0 -6 5 -5 12 2 6 6 9 14 7 17 -3 3
-9 2 -12 -2z"/>
<path d="M1626 3166 c-43 -66 -52 -92 -50 -139 3 -62 14 -74 14 -16 0 61 16
113 46 149 14 16 21 30 16 30 -5 0 -17 -11 -26 -24z"/>
<path d="M3478 3168 c31 -35 44 -76 44 -153 0 -45 3 -63 8 -49 12 31 15 96 5
124 -11 35 -56 100 -68 100 -6 0 -1 -10 11 -22z"/>
<path d="M3560 3186 c0 -2 7 -7 16 -10 8 -3 12 -2 9 4 -6 10 -25 14 -25 6z"/>
<path d="M4030 3171 c0 -12 5 -21 10 -21 6 0 10 6 10 14 0 8 -4 18 -10 21 -5
3 -10 -3 -10 -14z"/>
<path d="M1067 3154 c-4 -4 -7 -14 -7 -23 0 -11 3 -12 11 -4 6 6 10 16 7 23
-2 6 -7 8 -11 4z"/>
<path d="M1777 3154 c-13 -13 -7 -24 14 -24 11 0 19 5 17 12 -5 14 -22 21 -31
12z"/>
<path d="M3316 3153 c-12 -12 -5 -23 14 -23 11 0 20 4 20 9 0 11 -26 22 -34
14z"/>
<path d="M1535 3090 c-3 -6 1 -7 9 -4 18 7 21 14 7 14 -6 0 -13 -4 -16 -10z"/>
<path d="M4067 3083 c-7 -11 10 -40 18 -31 4 4 3 14 -3 24 -5 9 -12 12 -15 7z"/>
<path d="M1026 3044 c-9 -22 3 -32 14 -14 12 19 12 30 1 30 -5 0 -12 -7 -15
-16z"/>
<path d="M3646 2974 c-9 -24 -2 -26 12 -4 7 11 8 20 3 20 -5 0 -12 -7 -15 -16z"/>
<path d="M4097 2961 c3 -12 10 -21 15 -21 13 0 6 32 -9 37 -7 3 -9 -3 -6 -16z"/>
<path d="M997 2940 c-3 -11 -2 -20 3 -20 12 0 21 28 11 35 -5 2 -11 -4 -14
-15z"/>
<path d="M2760 2868 c0 -12 -10 -32 -22 -45 -21 -23 -21 -23 -2 -38 17 -13 -4
-14 -184 -15 -153 0 -201 3 -196 12 5 8 2 9 -12 4 -10 -4 -55 -10 -99 -13 -44
-3 -81 -7 -83 -8 -7 -6 -7 -145 0 -145 3 0 15 -15 26 -32 l20 -33 -27 -95
c-26 -89 -27 -99 -15 -151 7 -31 25 -87 39 -125 15 -38 28 -74 29 -79 1 -6 14
-32 29 -57 30 -52 33 -68 13 -68 -17 0 -46 27 -46 43 0 8 -3 7 -9 -2 -6 -9
-30 -13 -80 -13 -43 1 -71 -3 -71 -10 0 -5 -7 -8 -15 -4 -8 3 -28 -7 -46 -24
-26 -23 -36 -27 -52 -19 -27 15 -77 20 -77 8 0 -6 -9 -8 -20 -4 -12 4 -20 2
-20 -5 0 -7 -7 -10 -15 -6 -8 3 -15 1 -15 -4 0 -6 -9 -10 -21 -10 -25 0 -49
-22 -49 -45 0 -16 -23 -46 -35 -45 -20 1 -25 -2 -25 -17 0 -10 7 -31 15 -47
20 -38 19 -56 -5 -56 -17 0 -40 34 -52 78 -2 8 -15 2 -36 -17 -33 -30 -43 -73
-20 -87 23 -14 155 -3 252 22 105 27 151 28 151 4 0 -16 -24 -30 -110 -62 -51
-20 -60 -27 -63 -50 -3 -27 -2 -28 47 -28 27 0 96 11 153 25 185 45 315 59
548 59 231 0 363 -14 545 -58 55 -13 123 -26 150 -27 44 -3 50 -1 53 18 4 28
-36 58 -96 73 -58 14 -87 34 -79 55 9 21 46 19 154 -10 90 -23 229 -35 252
-21 21 14 12 54 -20 80 -35 30 -45 28 -54 -15 -7 -33 -25 -45 -51 -35 -14 6
-15 9 -2 29 24 37 30 73 13 87 -8 7 -15 9 -15 5 0 -4 -7 -2 -15 5 -8 7 -15 21
-15 31 0 20 -35 61 -44 52 -3 -3 -13 -2 -23 2 -10 5 -21 9 -25 10 -5 2 -11 4
-15 5 -5 1 -12 3 -18 5 -5 1 -14 3 -20 5 -25 6 -42 4 -69 -9 -28 -13 -31 -12
-58 18 -17 19 -33 28 -43 25 -8 -3 -15 -1 -15 4 0 7 -28 11 -71 10 -50 0 -74
4 -80 13 -7 11 -10 9 -15 -8 -5 -20 -42 -38 -53 -27 -3 3 6 29 21 57 52 103
108 269 108 321 0 11 -11 57 -25 103 -24 77 -24 85 -10 112 8 16 19 33 25 36
5 3 10 40 10 81 l0 74 -52 1 c-29 1 -60 0 -68 -1 -12 -1 -13 1 -2 11 22 23 13
56 -22 83 -42 32 -56 33 -56 4z m-427 -164 c33 -35 72 -65 107 -80 30 -14 69
-39 87 -56 l31 -30 34 34 c19 18 54 40 79 48 30 10 63 34 106 77 61 62 63 63
118 63 l55 0 0 -55 c0 -33 -4 -55 -11 -55 -6 0 -39 -27 -73 -59 -34 -33 -84
-69 -111 -81 -65 -28 -83 -45 -111 -105 -26 -56 -31 -120 -13 -192 9 -35 9
-61 -1 -114 -11 -56 -11 -80 -1 -126 18 -79 -2 -196 -37 -219 -27 -18 -56 -13
-91 16 -23 20 -23 22 -11 80 10 49 10 71 0 121 -11 49 -11 73 0 128 10 55 10
78 0 120 -8 33 -10 76 -5 122 l7 70 -44 42 c-24 23 -63 49 -87 57 -28 9 -65
35 -107 77 -35 35 -68 63 -74 63 -6 0 -10 24 -10 55 l0 55 55 0 c55 0 57 -1
108 -56z m-163 -752 c0 -13 -12 -22 -22 -16 -10 6 -1 24 13 24 5 0 9 -4 9 -8z
m800 -8 c0 -8 -4 -12 -10 -9 -5 3 -10 10 -10 16 0 5 5 9 10 9 6 0 10 -7 10
-16z m-855 -23 c10 -17 -12 -21 -25 -6 -10 12 -10 15 3 15 9 0 18 -4 22 -9z
m915 1 c0 -13 -12 -22 -22 -16 -10 6 -1 24 13 24 5 0 9 -4 9 -8z m-810 -16 c0
-11 -19 -15 -25 -6 -3 5 1 10 9 10 9 0 16 -2 16 -4z m705 -6 c-3 -5 -12 -7
-20 -3 -21 7 -19 13 6 13 11 0 18 -4 14 -10z m-1035 -35 c0 -8 -4 -15 -9 -15
-13 0 -22 16 -14 24 11 11 23 6 23 -9z m1362 0 c0 -5 -5 -11 -11 -13 -6 -2
-11 4 -11 13 0 9 5 15 11 13 6 -2 11 -8 11 -13z m-1432 -10 c0 -8 -4 -15 -10
-15 -5 0 -10 7 -10 15 0 8 5 15 10 15 6 0 10 -7 10 -15z m301 -8 c-13 -13 -26
-3 -16 12 3 6 11 8 17 5 6 -4 6 -10 -1 -17z m899 2 c0 -5 -7 -9 -15 -9 -15 0
-20 12 -9 23 8 8 24 -1 24 -14z m300 6 c0 -8 -4 -15 -10 -15 -5 0 -10 7 -10
15 0 8 5 15 10 15 6 0 10 -7 10 -15z m-1130 -10 c0 -8 -4 -15 -10 -15 -5 0
-10 7 -10 15 0 8 5 15 10 15 6 0 10 -7 10 -15z m760 0 c0 -8 -4 -15 -10 -15
-5 0 -10 7 -10 15 0 8 5 15 10 15 6 0 10 -7 10 -15z m-595 -24 c-9 -16 -25 -3
-18 15 4 10 9 12 15 6 6 -6 7 -15 3 -21z m428 -4 c-3 -5 -10 -4 -15 1 -6 6 -7
16 -3 22 6 9 9 9 16 -1 4 -7 5 -17 2 -22z m-868 -7 c3 -5 -1 -10 -9 -10 -9 0
-16 5 -16 10 0 6 4 10 9 10 6 0 13 -4 16 -10z m1315 -5 c0 -9 -6 -12 -15 -9
-8 4 -12 10 -9 15 8 14 24 10 24 -6z m-1420 -10 c0 -8 -7 -15 -16 -15 -14 0
-14 3 -4 15 7 8 14 15 16 15 2 0 4 -7 4 -15z m491 2 c-1 -12 -15 -9 -19 4 -3
6 1 10 8 8 6 -3 11 -8 11 -12z m539 5 c0 -13 -12 -22 -22 -16 -10 6 -1 24 13
24 5 0 9 -4 9 -8z m490 -7 c10 -12 10 -15 -4 -15 -9 0 -16 7 -16 15 0 8 2 15
4 15 2 0 9 -7 16 -15z m-920 -3 c0 -13 -12 -22 -22 -16 -10 6 -1 24 13 24 5 0
9 -4 9 -8z m321 -5 c-1 -12 -15 -9 -19 4 -3 6 1 10 8 8 6 -3 11 -8 11 -12z
m-864 -33 c-9 -9 -28 6 -21 18 4 6 10 6 17 -1 6 -6 8 -13 4 -17z m1404 3 c-13
-13 -26 -3 -16 12 3 6 11 8 17 5 6 -4 6 -10 -1 -17z m-956 -28 c-10 -15 -25
-10 -19 6 4 8 10 12 15 9 5 -3 7 -10 4 -15z m510 -7 c-8 -8 -25 10 -19 20 4 6
9 5 15 -3 4 -7 6 -15 4 -17z m-445 2 c0 -8 -4 -12 -10 -9 -5 3 -10 10 -10 16
0 5 5 9 10 9 6 0 10 -7 10 -16z m380 7 c0 -6 -4 -13 -10 -16 -5 -3 -10 1 -10
9 0 9 5 16 10 16 6 0 10 -4 10 -9z"/>
<path d="M4120 2861 c0 -12 5 -21 10 -21 6 0 10 6 10 14 0 8 -4 18 -10 21 -5
3 -10 -3 -10 -14z"/>
<path d="M977 2836 c-4 -10 -5 -21 -2 -24 9 -9 17 6 13 25 -3 17 -4 17 -11 -1z"/>
<path d="M2022 2750 c0 -14 2 -19 5 -12 2 6 2 18 0 25 -3 6 -5 1 -5 -13z"/>
<path d="M3085 2738 c-4 -18 -12 -39 -19 -47 -9 -12 -8 -13 8 -4 12 6 20 24
22 47 4 45 -2 47 -11 4z"/>
<path d="M4140 2751 c0 -12 5 -21 10 -21 6 0 10 6 10 14 0 8 -4 18 -10 21 -5
3 -10 -3 -10 -14z"/>
<path d="M3456 2745 c-3 -9 -6 -22 -5 -28 0 -7 5 -1 10 12 5 13 8 26 5 28 -2
2 -6 -3 -10 -12z"/>
<path d="M1650 2745 c0 -5 5 -17 10 -25 5 -8 10 -10 10 -5 0 6 -5 17 -10 25
-5 8 -10 11 -10 5z"/>
<path d="M960 2720 c0 -11 5 -20 10 -20 6 0 10 9 10 20 0 11 -4 20 -10 20 -5
0 -10 -9 -10 -20z"/>
<path d="M1613 2720 c-11 -16 -10 -18 2 -14 8 4 15 12 15 20 0 19 -3 18 -17
-6z"/>
<path d="M3490 2721 c0 -5 5 -13 10 -16 6 -3 10 -2 10 4 0 5 -4 13 -10 16 -5
3 -10 2 -10 -4z"/>
<path d="M2020 2710 c0 -5 9 -14 20 -20 19 -10 20 -10 8 9 -13 22 -28 28 -28
11z"/>
<path d="M4150 2643 c0 -13 5 -23 10 -23 13 0 13 11 0 30 -8 12 -10 11 -10 -7z"/>
<path d="M1935 2617 c15 -21 30 -35 32 -33 3 3 -9 20 -27 38 l-32 33 27 -38z"/>
<path d="M3175 2620 c-16 -16 -26 -32 -24 -34 3 -3 17 10 32 29 34 43 30 45
-8 5z"/>
<path d="M950 2610 c0 -11 5 -20 10 -20 6 0 10 9 10 20 0 11 -4 20 -10 20 -5
0 -10 -9 -10 -20z"/>
<path d="M4150 2530 c0 -11 5 -20 10 -20 6 0 10 9 10 20 0 11 -4 20 -10 20 -5
0 -10 -9 -10 -20z"/>
<path d="M950 2500 c0 -11 5 -20 10 -20 6 0 10 9 10 20 0 11 -4 20 -10 20 -5
0 -10 -9 -10 -20z"/>
<path d="M4140 2420 c0 -11 5 -20 10 -20 6 0 10 9 10 20 0 11 -4 20 -10 20 -5
0 -10 -9 -10 -20z"/>
<path d="M1275 2420 c-3 -5 -1 -10 4 -10 6 0 11 5 11 10 0 6 -2 10 -4 10 -3 0
-8 -4 -11 -10z"/>
<path d="M960 2390 c0 -11 5 -20 10 -20 6 0 10 9 10 20 0 11 -4 20 -10 20 -5
0 -10 -9 -10 -20z"/>
<path d="M2060 2369 c0 -5 5 -7 10 -4 6 3 10 8 10 11 0 2 -4 4 -10 4 -5 0 -10
-5 -10 -11z"/>
<path d="M3040 2370 c20 -13 33 -13 25 0 -3 6 -14 10 -23 10 -15 0 -15 -2 -2
-10z"/>
<path d="M3255 2347 c-15 -18 -19 -31 -14 -57 4 -20 7 -25 8 -14 0 12 8 38 16
58 18 42 17 43 -10 13z"/>
<path d="M3527 2349 c4 -13 8 -18 11 -10 2 7 -1 18 -6 23 -8 8 -9 4 -5 -13z"/>
<path d="M1576 2345 c-3 -8 -1 -15 4 -15 6 0 10 7 10 15 0 8 -2 15 -4 15 -2 0
-6 -7 -10 -15z"/>
<path d="M1853 2331 c12 -32 27 -42 27 -18 0 8 -9 22 -20 32 -19 17 -19 17 -7
-14z"/>
<path d="M4130 2310 c0 -11 5 -20 10 -20 6 0 10 9 10 20 0 11 -4 20 -10 20 -5
0 -10 -9 -10 -20z"/>
<path d="M2040 2310 l-25 -8 27 -1 c15 -1 30 4 33 9 7 11 0 11 -35 0z"/>
<path d="M3045 2310 c3 -5 16 -10 28 -9 21 0 21 1 2 9 -28 12 -37 12 -30 0z"/>
<path d="M977 2280 c3 -11 9 -17 14 -15 10 7 1 35 -11 35 -5 0 -6 -9 -3 -20z"/>
<path d="M4110 2199 c0 -11 5 -17 10 -14 6 3 10 13 10 21 0 8 -4 14 -10 14 -5
0 -10 -9 -10 -21z"/>
<path d="M1000 2183 c0 -13 5 -23 10 -23 13 0 13 11 0 30 -8 12 -10 11 -10 -7z"/>
<path d="M4085 2107 c-4 -10 -5 -21 -1 -24 10 -10 18 4 13 24 -4 17 -4 17 -12
0z"/>
<path d="M1030 2071 c0 -12 5 -21 10 -21 6 0 10 6 10 14 0 8 -4 18 -10 21 -5
3 -10 -3 -10 -14z"/>
<path d="M4047 1995 c-4 -8 -2 -17 3 -20 6 -4 10 -4 10 -1 0 2 3 11 6 20 3 9
2 16 -4 16 -5 0 -12 -7 -15 -15z"/>
<path d="M1067 1984 c-6 -10 9 -42 16 -34 3 3 1 14 -3 24 -3 11 -9 15 -13 10z"/>
<path d="M4007 1903 c-10 -9 -8 -33 2 -33 5 0 11 9 14 20 5 20 -3 26 -16 13z"/>
<path d="M1107 1883 c-7 -11 10 -40 18 -31 4 4 3 14 -3 24 -5 9 -12 12 -15 7z"/>
<path d="M3955 1799 c-4 -6 -5 -13 -2 -16 7 -7 27 6 27 18 0 12 -17 12 -25 -2z"/>
<path d="M1160 1776 c0 -8 5 -18 10 -21 6 -3 10 1 10 9 0 8 -4 18 -10 21 -5 3
-10 -1 -10 -9z"/>
<path d="M3900 1701 c-7 -15 -7 -21 0 -21 12 0 25 28 17 36 -3 3 -10 -4 -17
-15z"/>
<path d="M1216 1676 c3 -9 11 -16 16 -16 13 0 5 23 -10 28 -7 2 -10 -2 -6 -12z"/>
<path d="M2459 1610 c-1 -17 -3 -20 -6 -7 -3 12 -15 17 -44 17 l-40 0 6 -37
c5 -28 4 -34 -4 -23 -6 8 -11 23 -11 33 0 9 -4 17 -9 17 -10 0 -25 -69 -17
-78 3 -3 6 3 6 14 1 17 1 18 11 2 15 -27 39 -10 39 29 0 22 4 32 11 27 6 -3 9
-19 7 -35 -3 -16 -1 -29 4 -29 4 0 8 17 8 38 0 26 3 33 9 22 6 -8 7 -18 4 -23
-2 -4 -2 -16 2 -25 7 -14 9 -13 15 8 7 23 8 23 9 4 1 -12 8 -24 16 -28 13 -4
14 2 9 37 -8 49 -23 73 -25 37z"/>
<path d="M2510 1584 c0 -24 2 -44 5 -44 3 0 11 15 19 33 l14 32 1 -32 c1 -25
5 -31 21 -30 11 1 20 8 20 16 0 11 4 10 15 -5 14 -19 14 -19 15 0 0 20 0 20
14 0 8 -11 18 -15 23 -10 4 5 2 11 -4 13 -7 3 -13 18 -13 34 0 21 4 27 15 23
9 -4 15 -19 15 -40 0 -25 4 -34 16 -34 12 0 14 4 7 13 -14 16 -13 50 1 59 7 5
5 8 -6 8 -9 0 -23 3 -31 6 -10 4 -21 -4 -31 -23 -14 -26 -15 -26 -16 -5 0 32
-16 27 -23 -8 -4 -16 -11 -30 -16 -30 -10 0 -9 39 2 57 5 7 -5 11 -28 11 -35
0 -35 0 -35 -44z"/>
<path d="M3841 1616 c-8 -9 -11 -19 -7 -23 9 -9 29 13 24 27 -2 8 -8 7 -17 -4z"/>
<path d="M2306 1613 c-3 -3 -6 -24 -6 -46 0 -45 9 -46 12 -1 1 16 6 32 11 35
5 4 5 9 -1 12 -5 4 -12 4 -16 0z"/>
<path d="M2726 1590 c-9 -45 -7 -58 4 -40 6 10 10 11 10 3 0 -7 7 -13 15 -13
8 0 15 7 15 16 0 8 -4 12 -10 9 -5 -3 -10 2 -10 12 0 10 -4 24 -9 31 -6 10
-10 4 -15 -18z"/>
<path d="M2760 1603 c1 -23 39 -74 40 -52 0 20 -23 69 -32 69 -5 0 -8 -8 -8
-17z"/>
<path d="M2790 1603 c0 -8 5 -11 10 -8 6 4 10 -8 10 -30 0 -29 3 -36 18 -33
12 2 18 14 20 41 2 20 0 37 -5 38 -4 0 -18 2 -30 3 -14 2 -23 -3 -23 -11z m50
-28 c0 -14 -4 -25 -10 -25 -11 0 -14 33 -3 43 11 11 13 8 13 -18z"/>
<path d="M2233 1603 c-7 -2 -13 -12 -13 -21 0 -15 2 -15 10 -2 7 11 10 5 10
-22 0 -40 10 -48 29 -24 28 34 1 85 -36 69z m37 -38 c0 -8 -4 -17 -10 -20 -6
-4 -10 5 -10 20 0 15 4 24 10 20 6 -3 10 -12 10 -20z"/>
<path d="M2870 1566 c0 -29 4 -45 10 -41 6 3 10 12 10 20 0 8 5 17 11 21 8 5
10 -1 7 -19 -4 -20 -1 -25 12 -24 13 1 18 10 18 39 1 23 -4 38 -11 38 -7 0
-22 3 -34 6 -21 6 -23 3 -23 -40z"/>
<path d="M1280 1585 c7 -8 17 -15 22 -15 6 0 5 7 -2 15 -7 8 -17 15 -22 15 -6
0 -5 -7 2 -15z"/>
<path d="M2189 1565 l-1 -40 -13 35 c-13 36 -19 32 -28 -22 -4 -28 7 -39 16
-15 4 9 6 9 6 0 1 -18 31 -4 31 15 0 13 3 12 15 -4 14 -19 14 -19 14 1 1 11
-8 31 -19 45 l-20 25 -1 -40z"/>
<path d="M2951 1578 c-15 -41 7 -80 33 -59 10 9 15 8 20 -5 3 -9 12 -14 20
-11 8 3 17 3 21 -1 4 -4 10 -7 13 -7 4 -1 16 -4 27 -7 11 -3 37 -9 58 -13 l38
-6 -3 40 c-3 43 -12 52 -22 25 -6 -16 -26 -11 -26 7 0 6 5 7 12 3 7 -4 8 -3 4
5 -4 6 -11 9 -16 6 -5 -3 -11 -1 -15 5 -11 18 -25 10 -25 -14 0 -14 -5 -28
-10 -31 -6 -4 -9 6 -8 27 3 28 0 33 -20 34 -12 1 -25 4 -29 8 -3 3 -12 1 -20
-5 -8 -7 -13 -8 -13 -1 0 22 -31 22 -39 0z m29 -22 c0 -14 -4 -28 -10 -31 -6
-4 -10 7 -10 24 0 17 5 31 10 31 6 0 10 -11 10 -24z m60 -7 c0 -11 -4 -18 -9
-14 -5 3 -12 -3 -14 -12 -3 -10 -5 -3 -6 15 -1 22 4 32 14 32 8 0 15 -9 15
-21z m80 -17 c0 -10 6 -24 13 -31 10 -10 8 -12 -8 -9 -13 2 -20 12 -22 31 -1
15 2 27 8 27 5 0 9 -8 9 -18z m50 -43 c0 -6 -4 -7 -10 -4 -5 3 -10 11 -10 16
0 6 5 7 10 4 6 -3 10 -11 10 -16z"/>
<path d="M2038 1568 c-16 -5 -28 -14 -28 -19 0 -6 5 -7 10 -4 6 4 10 -6 9 -22
0 -16 -3 -21 -6 -13 -19 50 -64 60 -55 12 5 -23 6 -24 12 -7 7 19 7 19 19 -3
6 -12 21 -22 33 -22 16 0 19 5 16 24 -3 14 -1 31 3 38 6 8 9 -1 9 -24 0 -21 5
-38 11 -38 7 0 10 14 7 35 -2 22 0 34 6 32 6 -2 12 -16 14 -30 5 -39 22 -33
22 7 0 45 -24 56 -82 34z"/>
<path d="M1820 1550 c0 -5 5 -10 11 -10 5 0 7 5 4 10 -3 6 -8 10 -11 10 -2 0
-4 -4 -4 -10z"/>
<path d="M1939 1546 c-12 -12 3 -76 18 -76 11 0 13 3 5 13 -6 6 -12 25 -14 40
-1 16 -5 26 -9 23z"/>
<path d="M3771 1526 c-8 -10 -9 -16 -1 -21 5 -3 13 1 16 10 9 22 -1 29 -15 11z"/>
<path d="M1346 1512 c-3 -6 1 -15 8 -21 8 -7 17 -8 20 -3 3 6 -1 15 -8 21 -8
7 -17 8 -20 3z"/>
<path d="M2370 1510 c-47 -4 -109 -10 -139 -15 l-54 -7 68 -24 c203 -71 427
-71 629 0 l68 23 -44 7 c-137 22 -370 29 -528 16z"/>
<path d="M3700 1445 c-7 -9 -11 -18 -8 -20 3 -3 11 1 18 10 7 9 11 18 8 20 -3
3 -11 -1 -18 -10z"/>
<path d="M1420 1432 c0 -5 7 -15 15 -22 8 -7 15 -8 15 -2 0 5 -7 15 -15 22 -8
7 -15 8 -15 2z"/>
<path d="M3615 1369 c-4 -6 -5 -13 -2 -16 7 -7 27 6 27 18 0 12 -17 12 -25 -2z"/>
<path d="M1502 1349 c2 -7 10 -15 17 -17 8 -3 12 1 9 9 -2 7 -10 15 -17 17 -8
3 -12 -1 -9 -9z"/>
<path d="M3529 1294 c-12 -14 -11 -16 5 -13 11 2 21 10 24 17 5 17 -13 15 -29
-4z"/>
<path d="M1593 1273 c9 -9 20 -13 24 -9 4 4 1 11 -7 16 -25 16 -35 11 -17 -7z"/>
<path d="M3447 1235 c-10 -7 -14 -16 -9 -19 5 -3 15 1 22 9 17 21 9 27 -13 10z"/>
<path d="M1670 1221 c0 -5 7 -12 16 -15 24 -9 28 -7 14 9 -14 17 -30 20 -30 6z"/>
<path d="M3345 1170 c-3 -5 1 -10 9 -10 8 0 18 5 21 10 3 6 -1 10 -9 10 -8 0
-18 -4 -21 -10z"/>
<path d="M1770 1162 c0 -5 7 -13 16 -16 10 -4 14 -1 12 6 -5 15 -28 23 -28 10z"/>
<path d="M3247 1124 c-4 -4 -4 -10 -1 -15 6 -10 34 0 34 12 0 10 -24 12 -33 3z"/>
<path d="M1860 1112 c0 -5 9 -12 21 -15 13 -3 19 -1 16 6 -5 15 -37 22 -37 9z"/>
<path d="M3158 1082 c-10 -2 -18 -8 -18 -13 0 -13 27 -11 35 2 9 13 4 16 -17
11z"/>
<path d="M1965 1070 c-4 -6 -4 -10 -1 -10 2 0 11 -3 20 -6 9 -3 16 -2 16 4 0
14 -28 23 -35 12z"/>
<path d="M3050 1040 c-8 -5 -12 -12 -9 -15 8 -8 39 5 39 16 0 11 -11 11 -30
-1z"/>
<path d="M2070 1030 c0 -5 10 -10 23 -10 18 0 19 2 7 10 -19 13 -30 13 -30 0z"/>
<path d="M2946 1010 c-11 -3 -15 -9 -10 -13 10 -6 42 9 34 16 -3 3 -14 1 -24
-3z"/>
<path d="M2170 1000 c0 -5 9 -10 21 -10 11 0 17 5 14 10 -3 6 -13 10 -21 10
-8 0 -14 -4 -14 -10z"/>
<path d="M2280 980 c0 -5 10 -10 23 -10 18 0 19 2 7 10 -19 13 -30 13 -30 0z"/>
<path d="M2830 980 c0 -5 6 -10 14 -10 8 0 18 5 21 10 3 6 -3 10 -14 10 -12 0
-21 -4 -21 -10z"/>
<path d="M2730 970 c-12 -8 -10 -10 8 -10 13 0 20 4 17 10 -7 12 -6 12 -25 0z"/>
<path d="M2395 960 c3 -5 13 -10 21 -10 8 0 14 5 14 10 0 6 -9 10 -21 10 -11
0 -17 -4 -14 -10z"/>
<path d="M2500 960 c0 -5 9 -10 21 -10 11 0 17 5 14 10 -3 6 -13 10 -21 10 -8
0 -14 -4 -14 -10z"/>
<path d="M2610 960 c0 -5 9 -10 20 -10 11 0 20 5 20 10 0 6 -9 10 -20 10 -11
0 -20 -4 -20 -10z"/>
<path d="M4065 4290 l-39 -40 49 -45 c54 -48 83 -55 108 -27 27 30 20 55 -31
105 l-48 47 -39 -40z"/>
<path d="M1045 4289 c4 -11 18 -46 31 -76 l24 -55 34 29 c19 15 33 32 32 38
-1 5 -31 26 -65 47 -55 34 -62 36 -56 17z"/>
<path d="M322 3139 c-36 -11 -72 -59 -72 -97 0 -69 72 -121 168 -122 64 0 87
11 107 50 32 62 9 122 -57 152 -45 21 -106 28 -146 17z"/>
<path d="M270 2637 c-43 -15 -60 -47 -60 -114 l0 -53 135 0 135 0 0 58 c0 48
-4 62 -23 80 -43 40 -120 52 -187 29z"/>
<path d="M3388 539 c2 -41 6 -76 8 -78 5 -6 78 26 81 35 1 5 -19 33 -45 63
l-48 54 4 -74z"/>
<path d="M2862 500 c-18 -4 -35 -10 -38 -13 -3 -3 -2 -26 2 -52 l7 -47 56 6
c68 8 101 28 101 61 0 49 -44 65 -128 45z"/>
</g>
</svg>
